#!OML:ASF E:\Style4\Style4.ASF
:FULLY-SPECIFIED
:DEGREES
3343
root -0.830072 17.4004 -1.92229 10.4315 6.94006 0.224204
lowerback 18.1605 3.67837 -0.237764
upperback 14.404 4.85518 -0.950541
thorax 5.52711 2.51739 -1.49809
lowerneck 5.16596 -5.64594 -5.15011
upperneck -4.98388 -7.3021 12.0071
head -1.66507 -3.92491 4.62746
rclavicle 2.10712e-014 -9.14409e-015
rhumerus 50.8322 22.0411 -48.4899
rradius 94.463
rwrist -56.9551
rhand -2.79038 6.27984
rfingers 7.12502
rthumb 22.9151 -22.3785
lclavicle 2.10712e-014 -9.14409e-015
lhumerus 35.3401 -27.5541 76.4008
lradius 107.816
lwrist 44.8422
lhand -39.7157 39.4159
lfingers 7.12502
lthumb -12.6937 69.0101
rfemur -35.8172 -8.01646 24.259
rtibia 44.2369
rfoot -18.8098 -20.5685
rtoes -5.19752
lfemur -36.8637 -0.681663 -15.4533
ltibia 42.3219
lfoot -14.972 8.00474
ltoes -19.543
3344
root -0.828763 17.4049 -1.92017 10.4469 7.232 0.331202
lowerback 18.1753 3.74882 -0.0696589
upperback 14.4386 4.96908 -0.828242
thorax 5.56482 2.58349 -1.47486
lowerneck 5.42777 -5.87739 -5.26677
upperneck -5.29659 -7.60272 12.0587
head -1.76665 -4.08911 4.6823
rclavicle 8.94531e-014 -3.81667e-014
rhumerus 50.8059 22.3685 -48.9276
rradius 94.5548
rwrist -57.197
rhand -3.51677 6.56601
rfingers 7.12502
rthumb 22.2179 -22.177
lclavicle 8.94531e-014 -3.81667e-014
lhumerus 35.2966 -27.2877 75.7939
lradius 107.948
lwrist 44.5107
lhand -39.8803 39.6681
lfingers 7.12502
lthumb -12.8524 69.2524
rfemur -35.776 -8.18432 24.1469
rtibia 44.2222
rfoot -19.0474 -20.5323
rtoes -4.28206
lfemur -36.8273 -0.849684 -15.5636
ltibia 42.1693
lfoot -14.8859 7.87356
ltoes -19.4724
3345
root -0.82595 17.4092 -1.91694 10.4837 7.52423 0.378366
lowerback 18.1642 3.83995 0.210679
upperback 14.4765 5.12363 -0.690058
thorax 5.62984 2.67821 -1.49955
lowerneck 5.61308 -6.15207 -5.3175
upperneck -5.58913 -7.95964 12.0595
head -1.84899 -4.27829 4.70899
rclavicle 2.8625e-014 -1.90833e-014
rhumerus 50.7196 22.5493 -49.3762
rradius 94.6278
rwrist -57.3398
rhand -3.98103 6.91437
rfingers 7.12502
rthumb 21.7722 -21.8811
lclavicle 2.8625e-014 -1.90833e-014
lhumerus 35.1961 -26.8596 75.4164
lradius 108.098
lwrist 44.6267
lhand -38.9778 39.6568
lfingers 7.12502
lthumb -11.9823 69.2939
rfemur -35.7531 -8.37817 24.1022
rtibia 44.1937
rfoot -19.1904 -20.5214
rtoes -3.95006
lfemur -36.8363 -1.02015 -15.6061
ltibia 42.0191
lfoot -14.8069 7.73816
ltoes -18.9895
3346
root -0.821519 17.4142 -1.91491 10.5495 7.83226 0.401282
lowerback 18.1283 3.95125 0.614269
upperback 14.5226 5.32028 -0.566366
thorax 5.73353 2.80545 -1.60975
lowerneck 5.7307 -6.49533 -5.24156
upperneck -5.87403 -8.40069 12.0084
head -1.91817 -4.5082 4.69829
rclavicle -2.18663e-014 -1.07344e-014
rhumerus 50.4989 22.5746 -49.9088
rradius 94.6101
rwrist -57.2567
rhand -4.16553 7.58248
rfingers 7.12502
rthumb 21.595 -21.2334
lclavicle -2.18663e-014 -1.07344e-014
lhumerus 35.308 -26.6464 74.971
lradius 108.051
lwrist 44.4713
lhand -38.1817 39.7086
lfingers 7.12502
lthumb -11.2145 69.3888
rfemur -35.7645 -8.56897 24.0843
rtibia 44.1589
rfoot -19.2947 -20.5563
rtoes -3.5716
lfemur -36.8922 -1.16493 -15.6362
ltibia 41.8747
lfoot -14.6991 7.5854
ltoes -18.7863
3347
root -0.815518 17.4192 -1.91416 10.5974 8.18052 0.461799
lowerback 18.1343 4.03223 0.983637
upperback 14.5596 5.47273 -0.434823
thorax 5.80152 2.90757 -1.69015
lowerneck 5.90245 -6.81692 -5.14527
upperneck -6.19153 -8.81092 11.9351
head -2.01131 -4.7244 4.6816
rclavicle 4.85035e-014 -2.14687e-014
rhumerus 50.299 22.6751 -50.3456
rradius 94.5809
rwrist -57.2291
rhand -4.54362 8.44612
rfingers 7.12502
rthumb 21.2319 -20.4111
lclavicle 4.85035e-014 -2.14687e-014
lhumerus 35.4777 -26.5475 74.3753
lradius 108.019
lwrist 44.2237
lhand -38.0026 40.0244
lfingers 7.12502
lthumb -11.0418 69.714
rfemur -35.7452 -8.77724 24.0242
rtibia 44.1114
rfoot -19.2611 -20.7046
rtoes -3.81284
lfemur -36.9259 -1.31851 -15.7164
ltibia 41.7304
lfoot -14.5647 7.42099
ltoes -18.757
3348
root -0.807365 17.4238 -1.91187 10.6398 8.47198 0.541342
lowerback 18.1068 4.08202 1.22652
upperback 14.5979 5.56782 -0.285646
thorax 5.87168 2.96917 -1.67243
lowerneck 6.02478 -7.0565 -5.10522
upperneck -6.42363 -9.1247 11.8023
head -2.08061 -4.88547 4.65104
rclavicle -9.54166e-015 -1.51076e-014
rhumerus 50.2376 22.9378 -50.7078
rradius 94.5993
rwrist -57.3734
rhand -4.98415 8.97792
rfingers 7.12502
rthumb 20.8086 -19.9263
lclavicle -9.54166e-015 -1.51076e-014
lhumerus 35.5109 -26.3522 73.7013
lradius 108.082
lwrist 44.2101
lhand -38.3767 40.3076
lfingers 7.12502
lthumb -11.4025 69.9776
rfemur -35.7198 -8.97231 23.9348
rtibia 44.0507
rfoot -19.1294 -20.8836
rtoes -4.23948
lfemur -36.9289 -1.49986 -15.8222
ltibia 41.5747
lfoot -14.429 7.38685
ltoes -19.1864
